<svg width="135" height="34" viewBox="0 0 135 34" fill="none" xmlns="http://www.w3.org/2000/svg">
<path d="M0.896 28V13.024H4.224V13.984C4.48 13.664 4.736 13.408 4.992 13.216C5.26933 13.024 5.54667 12.8853 5.824 12.8C6.12267 12.7147 6.41067 12.672 6.688 12.672C7.02933 12.672 7.34933 12.7253 7.648 12.832C7.968 12.9387 8.26667 13.1093 8.544 13.344C8.82133 13.5787 9.04533 13.92 9.216 14.368C9.45067 13.9627 9.70667 13.6427 9.984 13.408C10.2827 13.152 10.624 12.9707 11.008 12.864C11.392 12.736 11.8187 12.672 12.288 12.672C12.8427 12.672 13.312 12.7787 13.696 12.992C14.1013 13.184 14.4213 13.472 14.656 13.856C14.912 14.2187 15.0933 14.6773 15.2 15.232C15.328 15.7653 15.392 16.384 15.392 17.088V28H11.936V17.856C11.936 17.28 11.904 16.832 11.84 16.512C11.7973 16.192 11.7227 15.9573 11.616 15.808C11.5093 15.6587 11.3707 15.584 11.2 15.584C10.9653 15.584 10.7307 15.7013 10.496 15.936C10.2827 16.1493 10.1013 16.4693 9.952 16.896C9.824 17.3227 9.76 17.856 9.76 18.496V28H6.528V17.92C6.528 16.9387 6.464 16.288 6.336 15.968C6.208 15.648 5.984 15.488 5.664 15.488C5.49333 15.488 5.32267 15.552 5.152 15.68C5.00267 15.7867 4.864 15.968 4.736 16.224C4.608 16.4587 4.512 16.7467 4.448 17.088C4.384 17.4293 4.352 17.8347 4.352 18.304V28H0.896ZM22.656 28.384C21.0347 28.384 19.7653 28 18.848 27.232C17.9307 26.4427 17.472 25.4187 17.472 24.16C17.472 23.3493 17.6427 22.6133 17.984 21.952C18.3467 21.2693 18.88 20.672 19.584 20.16C20.3093 19.648 21.216 19.2533 22.304 18.976C23.392 18.6773 24.6613 18.528 26.112 18.528C26.24 18.528 26.4107 18.5387 26.624 18.56C26.8373 18.56 27.072 18.56 27.328 18.56C27.584 18.56 27.8187 18.5707 28.032 18.592L28.128 21.344C27.9573 21.3227 27.7333 21.312 27.456 21.312C27.2 21.312 26.9333 21.312 26.656 21.312C26.3787 21.312 26.1547 21.312 25.984 21.312C25.088 21.312 24.352 21.376 23.776 21.504C23.2213 21.6107 22.7733 21.7707 22.432 21.984C22.112 22.1973 21.888 22.4427 21.76 22.72C21.632 22.9973 21.568 23.296 21.568 23.616C21.568 23.8933 21.6107 24.1493 21.696 24.384C21.8027 24.5973 21.9413 24.768 22.112 24.896C22.2827 25.0027 22.4853 25.088 22.72 25.152C22.976 25.216 23.2427 25.248 23.52 25.248C24.096 25.248 24.5973 25.152 25.024 24.96C25.4507 24.768 25.8027 24.4693 26.08 24.064C26.3787 23.6373 26.592 23.104 26.72 22.464C26.8693 21.8027 26.944 21.024 26.944 20.128C26.944 18.9547 26.8267 18.0587 26.592 17.44C26.3573 16.8213 26.0267 16.3947 25.6 16.16C25.1733 15.9253 24.64 15.808 24 15.808C23.3387 15.808 22.7093 15.9147 22.112 16.128C21.536 16.32 20.9493 16.7253 20.352 17.344L18.08 14.944C18.976 14.112 19.9467 13.5253 20.992 13.184C22.0587 12.8427 23.1147 12.672 24.16 12.672C25.0773 12.672 25.9413 12.7787 26.752 12.992C27.584 13.2053 28.3093 13.5573 28.928 14.048C29.568 14.5173 30.0693 15.1787 30.432 16.032C30.7947 16.864 30.976 17.9093 30.976 19.168V28H26.816V26.592C26.5387 26.912 26.2507 27.1893 25.952 27.424C25.6747 27.6587 25.3653 27.8507 25.024 28C24.6827 28.128 24.32 28.224 23.936 28.288C23.552 28.352 23.1253 28.384 22.656 28.384ZM32.928 13.024H37.12L37.088 17.184L36.64 16.96C36.704 16.32 36.8747 15.744 37.152 15.232C37.4293 14.6987 37.7813 14.24 38.208 13.856C38.656 13.472 39.136 13.184 39.648 12.992C40.1813 12.7787 40.7253 12.672 41.28 12.672C42.1333 12.672 42.9013 12.8107 43.584 13.088C44.2667 13.3653 44.896 13.8027 45.472 14.4L43.776 17.856L43.68 18.112L43.36 17.984C43.296 17.8133 43.232 17.632 43.168 17.44C43.1253 17.248 42.9867 17.024 42.752 16.768C42.4533 16.5547 42.1333 16.3733 41.792 16.224C41.4507 16.0747 41.0773 16 40.672 16C40.16 16 39.68 16.0853 39.232 16.256C38.8053 16.4053 38.432 16.6507 38.112 16.992C37.792 17.3333 37.536 17.7707 37.344 18.304C37.152 18.816 37.056 19.4453 37.056 20.192V28H32.928V13.024ZM52.704 28.384C51.7653 28.384 50.8693 28.2987 50.016 28.128C49.1627 27.9573 48.3627 27.7013 47.616 27.36C46.8907 27.0187 46.2293 26.56 45.632 25.984L47.328 22.784L47.456 22.528L47.744 22.688C47.7867 22.8373 47.84 23.008 47.904 23.2C47.9893 23.3707 48.16 23.5733 48.416 23.808C48.9707 24.256 49.6 24.608 50.304 24.864C51.008 25.0987 51.8187 25.216 52.736 25.216C53.2693 25.216 53.7173 25.1627 54.08 25.056C54.464 24.928 54.7627 24.7573 54.976 24.544C55.1893 24.3093 55.296 24.064 55.296 23.808C55.296 23.5733 55.2213 23.3707 55.072 23.2C54.944 23.0293 54.7413 22.88 54.464 22.752C54.1867 22.6027 53.8347 22.464 53.408 22.336C52.9813 22.1867 52.4693 22.0267 51.872 21.856C50.784 21.5787 49.8453 21.2373 49.056 20.832C48.2667 20.4053 47.6587 19.8933 47.232 19.296C46.8053 18.6987 46.592 17.984 46.592 17.152C46.592 16.32 46.8373 15.5733 47.328 14.912C47.84 14.2293 48.544 13.6853 49.44 13.28C50.3573 12.8747 51.4133 12.672 52.608 12.672C53.2053 12.672 53.7813 12.7253 54.336 12.832C54.912 12.9173 55.4453 13.056 55.936 13.248C56.448 13.4187 56.928 13.6533 57.376 13.952C57.824 14.2293 58.2507 14.56 58.656 14.944L56.736 17.696L56.544 17.952L56.256 17.728C56.2347 17.5573 56.1813 17.3973 56.096 17.248C56.032 17.0987 55.8827 16.9067 55.648 16.672C55.2213 16.3733 54.752 16.16 54.24 16.032C53.728 15.904 53.2053 15.84 52.672 15.84C52.0107 15.84 51.424 15.9467 50.912 16.16C50.4213 16.3733 50.176 16.6933 50.176 17.12C50.176 17.376 50.2933 17.6107 50.528 17.824C50.784 18.016 51.168 18.1973 51.68 18.368C52.2133 18.5387 52.8853 18.7307 53.696 18.944C54.912 19.2213 55.8933 19.5733 56.64 20C57.408 20.4267 57.9733 20.9387 58.336 21.536C58.6987 22.1333 58.88 22.8267 58.88 23.616C58.88 24.4693 58.6347 25.2587 58.144 25.984C57.6747 26.7093 56.9813 27.296 56.064 27.744C55.1467 28.1707 54.0267 28.384 52.704 28.384ZM65.92 28.416C65.1733 28.416 64.544 28.16 64.032 27.648C63.5413 27.136 63.296 26.5173 63.296 25.792C63.296 25.0667 63.5413 24.4587 64.032 23.968C64.544 23.456 65.1733 23.2 65.92 23.2C66.624 23.2 67.232 23.456 67.744 23.968C68.256 24.4587 68.512 25.0667 68.512 25.792C68.512 26.5173 68.256 27.136 67.744 27.648C67.232 28.16 66.624 28.416 65.92 28.416ZM74.688 28V24.8H78.304V16.192H74.848V13.024H82.4V24.8H85.696V28H74.688ZM80.16 10.752C79.4773 10.752 78.8907 10.528 78.4 10.08C77.9307 9.61067 77.696 9.056 77.696 8.416C77.696 7.73333 77.92 7.168 78.368 6.72C78.8373 6.272 79.4347 6.048 80.16 6.048C80.8213 6.048 81.3973 6.28267 81.888 6.752C82.4 7.22133 82.656 7.776 82.656 8.416C82.656 9.056 82.4 9.61067 81.888 10.08C81.3973 10.528 80.8213 10.752 80.16 10.752ZM94.048 28.352C92.704 28.352 91.488 28.032 90.4 27.392C89.312 26.7307 88.448 25.8133 87.808 24.64C87.168 23.4453 86.848 22.0693 86.848 20.512C86.848 19.04 87.168 17.7173 87.808 16.544C88.448 15.3493 89.312 14.4107 90.4 13.728C91.488 13.024 92.704 12.672 94.048 12.672C95.392 12.672 96.608 13.024 97.696 13.728C98.8053 14.4107 99.68 15.3493 100.32 16.544C100.981 17.7173 101.312 19.04 101.312 20.512C101.312 22.048 100.981 23.4133 100.32 24.608C99.68 25.7813 98.8053 26.6987 97.696 27.36C96.608 28.0213 95.392 28.352 94.048 28.352ZM94.048 25.12C94.688 25.12 95.2427 24.928 95.712 24.544C96.2027 24.16 96.5867 23.6267 96.864 22.944C97.1413 22.24 97.28 21.4293 97.28 20.512C97.28 19.5307 97.1413 18.6987 96.864 18.016C96.5867 17.3333 96.2027 16.8107 95.712 16.448C95.2427 16.0853 94.688 15.904 94.048 15.904C93.4507 15.904 92.9067 16.0853 92.416 16.448C91.9467 16.8107 91.5733 17.3333 91.296 18.016C91.0187 18.6987 90.88 19.5307 90.88 20.512C90.88 21.4293 91.0187 22.24 91.296 22.944C91.5733 23.6267 91.9467 24.16 92.416 24.544C92.9067 24.928 93.4507 25.12 94.048 25.12Z" fill="#010513"/>
</svg>
